<svg xmlns="http://www.w3.org/2000/svg" xmlns:xlink="http://www.w3.org/1999/xlink" width="24" height="24" viewBox="0 0 24 24"><defs><clipPath id="a"><circle cx="12" cy="12" r="12" fill="#ff7052"/></clipPath></defs><circle cx="12" cy="12" r="12" fill="#ff7052"/><g clip-path="url(#a)"><g transform="translate(5 6)"><path d="M6,11H2.25a.7.7,0,0,1-.75-.733V7.556l-.976-.22A.876.876,0,0,1,0,6.6V3.674a.888.888,0,0,1,.525-.733l10.5-2.93A1.146,1.146,0,0,1,11.182,0,.749.749,0,0,1,12,.743V9.462a.777.777,0,0,1-.768.765.667.667,0,0,1-.207-.033L6.75,9.022v1.246A.7.7,0,0,1,6,11ZM3,8V9.535H5.25V8.655Z" transform="translate(0.5 0.5)" fill="#fff"/></g></g></svg>