<svg xmlns="http://www.w3.org/2000/svg" xmlns:xlink="http://www.w3.org/1999/xlink" width="24" height="24" viewBox="0 0 24 24"><defs><clipPath id="a"><circle cx="12" cy="12" r="12" fill="#2f61d5"/></clipPath></defs><circle cx="12" cy="12" r="12" fill="#2f61d5"/><g clip-path="url(#a)"><g transform="translate(6 6)"><path d="M4.875,0C2.182,0,0,1.847,0,4.125A3.655,3.655,0,0,0,.75,6.317V9L2.774,7.844a5.591,5.591,0,0,0,2.1.406C7.568,8.25,9.75,6.4,9.75,4.125S7.568,0,4.875,0Z" fill="#fff"/><path d="M7.354,1.979A2.843,2.843,0,0,0,6.494,0,6.218,6.218,0,0,1,.229,4.6C.152,4.6.077,4.591,0,4.589a5.466,5.466,0,0,0,2.854.766,5.974,5.974,0,0,0,.98-.082L6.6,6.854v-3H6.595A2.8,2.8,0,0,0,7.354,1.979Z" transform="translate(4.646 5.146)" fill="#fff"/></g></g></svg>