<svg xmlns="http://www.w3.org/2000/svg" xmlns:xlink="http://www.w3.org/1999/xlink" width="24" height="24" viewBox="0 0 24 24"><defs><clipPath id="a"><circle cx="12" cy="12" r="12" fill="#3fb6dc"/></clipPath></defs><circle cx="12" cy="12" r="12" fill="#3fb6dc"/><g clip-path="url(#a)"><path d="M4.532,10H2.441V8.014H4.532V10ZM4.251,6.826h-1.7V6.392a1.781,1.781,0,0,1,.463-1.315,3.846,3.846,0,0,1,.94-.727l.589-.378a1.47,1.47,0,0,0,.562-1.091c0-.688-.595-1.132-1.516-1.132-1.085,0-1.67.626-1.74,1.859L0,3.454A3.29,3.29,0,0,1,3.648,0a3.677,3.677,0,0,1,2.4.783A2.442,2.442,0,0,1,7,2.741,2.272,2.272,0,0,1,6.523,4.28a3.531,3.531,0,0,1-1,.812c-.038.028-.2.118-.314.183l-.12.068c-.018.014-.058.04-.1.07a2.406,2.406,0,0,0-.275.2,1.119,1.119,0,0,0-.463.881v.335Z" transform="translate(8.5 7)" fill="#fff"/></g></svg>