<svg version="1" xmlns="http://www.w3.org/2000/svg" width="933.333" height="933.333" viewBox="0 0 700.000000 700.000000"><path d="M194.1 1.2C187.5 2 181.5 6 178 12.1l-2.5 4.4-.3 254.2L175 525l-46.8.1c-25.7 0-47.6.2-48.7.3-9.4 1.3-13 2-19.3 4.2-25.7 8.6-45.4 27.7-54.7 52.9C.6 595.8.2 600.6.1 643c0 36.4.1 39.8 1.8 43.6 2.1 4.7 5.8 8.6 10.4 11.1 3 1.7 14.6 1.8 206.2 1.8 188.1 0 203.3-.1 206.5-1.7 4.6-2.2 8.5-6.3 10.6-11.3 1.5-3.5 1.7-8.6 1.9-42.5.1-34.3.3-39.1 2-44 7.9-23.7 32.3-36.4 55.2-28.7 13.5 4.6 23.3 14.2 27.7 27.1 1.5 4.5 1.9 6.7 3.1 21.6.7 8.6 1 10.3 4.1 19.6 9.7 30 34.6 52.1 65.9 58.5 9.8 2 28.3 2 36-.1 2.2-.6 4.7-1.2 5.6-1.4 4.6-1.1 17.8-7.3 23.1-10.9 19.7-13.2 31.2-30 38.5-56.6 1.3-4.6 1.6-605.9.3-611.8-1.4-6.7-8-13.7-14.3-15.4-4.6-1.2-480.5-2-490.6-.7zm374.8 151.9V175H306.2l.1-21.9v-21.8h131.3l131.2-.1.1 21.9zm-.2 131.2c.2 11.9-.1 21.7-.5 21.8-.9.1-259.4.1-260.8 0-1.3-.1-1.6-42.2-.3-43.1.4-.3 59.4-.5 131.1-.5h130.3l.2 21.8zm-1.5 109.6c1.5.1 1.7 2.2 1.6 21.9v21.7H306.3v-21.7c0-21.3 0-21.7 2.1-22 1.7-.2 252.5-.1 258.8.1zM404.6 569.3c.2.2-1.1 3.7-3 7.8-6.7 14.6-7.8 22.7-7.9 54.6 0 17-.3 24.3-1.1 24.4-6.2.5-347.1.2-347.9-.3-.7-.4-1-8.3-1-24 .1-31.6 1.9-38.6 13.2-49.8 8.5-8.5 16.1-11.8 29-12.9 8.2-.6 318.1-.5 318.7.2z"/></svg>