<svg xmlns="http://www.w3.org/2000/svg" width="105" height="25.977" viewBox="0 0 105 25.977"><g transform="translate(-32 -84.023)"><text transform="translate(64 105)" fill="#7540ee" font-size="18" font-family="SegoeUI, Segoe UI" letter-spacing="0.016em"><tspan x="0" y="0">Planguru</tspan></text><g transform="translate(32 84)"><path d="M21,23.977a3,3,0,0,1-3-3,1.5,1.5,0,0,0-3,0v2.25a.751.751,0,0,1-.751.751H.75A.751.751,0,0,1,0,23.226v-2.25a3,3,0,0,1,3-3H6V.75A.751.751,0,0,1,6.75,0h16.5A.751.751,0,0,1,24,.75V20.976A3,3,0,0,1,21,23.977Zm-18-4.5a1.5,1.5,0,0,0-1.5,1.5v1.5h12v-1.5a3,3,0,0,1,.4-1.5Zm7.5-6v1.5h9v-1.5Zm0-4.5v1.5h9v-1.5Zm0-4.5v1.5h9v-1.5Z" transform="translate(0 0.023)" fill="#7540ee"/></g></g></svg>